<svg width="400" height="600" viewBox="0 0 400 600" fill="none" xmlns="http://www.w3.org/2000/svg">
<g id="fourorders-back" clip-path="url(#clip0_730_1185)">
<rect width="400" height="600" fill="white"/>
<rect id="Rectangle Copy" width="400" height="600" fill="url(#paint0_linear_730_1185)"/>
<g id="Group">
<path id="Fill 1" fill-rule="evenodd" clip-rule="evenodd" d="M301 115.5C301 37.3521 237.648 -26 159.5 -26C81.3521 -26 18 37.3521 18 115.5C18 193.648 81.3521 257 159.5 257C237.648 257 301 193.648 301 115.5Z" stroke="white" stroke-width="3"/>
<path id="Fill 3" fill-rule="evenodd" clip-rule="evenodd" d="M484 194.501C484 55.6013 371.399 -57 232.5 -57C93.6006 -57 -19 55.6013 -19 194.501C-19 333.399 93.6006 446 232.5 446C371.399 446 484 333.399 484 194.501Z" stroke="white" stroke-width="3"/>
<path id="Fill 5" fill-rule="evenodd" clip-rule="evenodd" d="M552 289C552 94.5969 394.403 -63 200 -63C5.59691 -63 -152 94.5969 -152 289C-152 483.403 5.59691 641 200 641C394.403 641 552 483.403 552 289Z" stroke="white" stroke-width="3"/>
<path id="Fill 7" fill-rule="evenodd" clip-rule="evenodd" d="M200 39C200 4.75822 172.242 -23 138 -23C103.758 -23 76 4.75822 76 39C76 73.2418 103.758 101 138 101C172.242 101 200 73.2418 200 39Z" stroke="white" stroke-width="3"/>
</g>
<path id="FOUR ORDERS" d="M35.85 310H38.91V300.16H48.18V297.64H38.91V290.89H48.75V288.34H35.85V310ZM53.9399 299.32C53.9399 305.26 56.3399 310.51 63.7199 310.51C71.4299 310.51 73.7399 304.72 73.7399 298.96C73.7399 291.61 69.9599 287.77 63.9599 287.77C61.9499 287.77 58.9799 288.25 56.7299 290.68C54.3599 293.23 53.9399 296.86 53.9399 299.32ZM57.0899 299.14C57.0899 294.7 58.4999 290.29 63.9899 290.29C68.9399 290.29 70.5599 294.01 70.5599 298.93C70.5599 300.4 70.3799 303.82 68.6099 305.98C67.3499 307.48 65.5799 307.96 63.8099 307.96C62.0999 307.96 60.2399 307.51 59.0099 305.98C57.5099 304.12 57.0899 301.51 57.0899 299.14ZM80.8095 288.34V301.54C80.8095 304.78 81.4095 306.04 82.0695 307C84.0795 309.88 87.6795 310.45 89.7195 310.45C91.2795 310.45 94.5795 310.12 96.7095 307.45C98.4495 305.29 98.4795 302.86 98.4795 301.69V288.34H95.5695V301.63C95.5695 303.19 95.5695 307.78 89.7195 307.78C88.2195 307.78 86.1195 307.45 84.7695 305.65C84.3195 305.02 83.8095 304.06 83.8095 301.75V288.34H80.8095ZM106.449 310H109.419V300.22H113.199C116.829 300.22 117.579 301.12 117.939 304.27C118.149 305.92 118.449 308.56 118.929 310H122.139C121.299 307.6 121.089 305.74 120.789 303.19C120.489 300.49 119.559 299.56 117.489 299.02C118.149 298.84 119.109 298.54 120.039 297.61C120.999 296.65 121.569 295.3 121.569 293.77C121.569 292.03 120.789 290.38 119.169 289.36C117.579 288.34 115.299 288.34 114.189 288.34H106.449V310ZM109.359 290.86H114.099C115.299 290.86 118.419 290.86 118.419 294.37C118.419 296.17 117.369 296.95 116.949 297.19C116.139 297.67 114.429 297.67 114.099 297.67H109.359V290.86ZM138.999 299.32C138.999 305.26 141.399 310.51 148.779 310.51C156.489 310.51 158.799 304.72 158.799 298.96C158.799 291.61 155.019 287.77 149.019 287.77C147.009 287.77 144.039 288.25 141.789 290.68C139.419 293.23 138.999 296.86 138.999 299.32ZM142.149 299.14C142.149 294.7 143.559 290.29 149.049 290.29C153.999 290.29 155.619 294.01 155.619 298.93C155.619 300.4 155.439 303.82 153.669 305.98C152.409 307.48 150.639 307.96 148.869 307.96C147.159 307.96 145.299 307.51 144.069 305.98C142.569 304.12 142.149 301.51 142.149 299.14ZM165.658 310H168.628V300.22H172.408C176.038 300.22 176.788 301.12 177.148 304.27C177.358 305.92 177.658 308.56 178.138 310H181.348C180.508 307.6 180.298 305.74 179.998 303.19C179.698 300.49 178.768 299.56 176.698 299.02C177.358 298.84 178.318 298.54 179.248 297.61C180.208 296.65 180.778 295.3 180.778 293.77C180.778 292.03 179.998 290.38 178.378 289.36C176.788 288.34 174.508 288.34 173.398 288.34H165.658V310ZM168.568 290.86H173.308C174.508 290.86 177.628 290.86 177.628 294.37C177.628 296.17 176.578 296.95 176.158 297.19C175.348 297.67 173.638 297.67 173.308 297.67H168.568V290.86ZM188.228 310H194.318C197.498 310 200.168 310 202.298 308.23C203.948 306.91 205.898 304.03 205.898 299.35C205.898 296.38 205.148 293.41 203.228 291.16C200.828 288.34 197.408 288.34 194.498 288.34H188.228V310ZM191.228 290.83H194.828C197.468 290.83 199.208 291.19 200.588 292.72C202.628 294.97 202.688 298.66 202.688 299.47C202.688 300.73 202.598 304.27 199.838 306.34C198.398 307.42 196.238 307.54 194.168 307.54H191.228V290.83ZM212.018 310H225.848V307.36H215.018V300.16H225.098V297.64H215.018V290.89H225.608V288.34H212.018V310ZM233.158 310H236.128V300.22H239.908C243.538 300.22 244.288 301.12 244.648 304.27C244.858 305.92 245.158 308.56 245.638 310H248.848C248.008 307.6 247.798 305.74 247.498 303.19C247.198 300.49 246.268 299.56 244.198 299.02C244.858 298.84 245.818 298.54 246.748 297.61C247.708 296.65 248.278 295.3 248.278 293.77C248.278 292.03 247.498 290.38 245.878 289.36C244.288 288.34 242.008 288.34 240.898 288.34H233.158V310ZM236.068 290.86H240.808C242.008 290.86 245.128 290.86 245.128 294.37C245.128 296.17 244.078 296.95 243.658 297.19C242.848 297.67 241.138 297.67 240.808 297.67H236.068V290.86ZM254.768 303.67C254.768 304.72 254.798 306.46 256.028 308.05C257.738 310.24 261.098 310.51 262.748 310.51C268.298 310.51 271.298 307.6 271.298 303.76C271.298 302.86 271.148 300.76 269.138 299.44C267.878 298.6 267.308 298.48 262.148 297.16C259.508 296.53 258.248 295.87 258.248 293.95C258.248 291.79 260.048 290.44 263.048 290.44C265.178 290.44 267.458 291.04 267.608 293.74H270.728C270.668 292.84 270.608 291.37 269.408 290.05C267.668 288.16 264.758 287.92 263.318 287.92C259.238 287.92 255.068 289.84 255.068 294.25C255.068 295.69 255.548 297.31 257.318 298.51C258.428 299.26 259.898 299.62 263.198 300.43C266.228 301.18 268.178 301.66 268.178 304.09C268.178 305.17 267.608 307.96 263.108 307.96C258.128 307.96 257.948 305.17 257.888 303.67H254.768Z" fill="white"/>
</g>
<defs>
<linearGradient id="paint0_linear_730_1185" x1="327.9" y1="782.179" x2="712.847" y2="421.265" gradientUnits="userSpaceOnUse">
<stop stop-color="#00376A"/>
<stop offset="0.729653"/>
<stop offset="1"/>
</linearGradient>
<clipPath id="clip0_730_1185">
<rect width="400" height="600" fill="white"/>
</clipPath>
</defs>
</svg>
