<svg width="400" height="600" viewBox="0 0 400 600" fill="none" xmlns="http://www.w3.org/2000/svg">
<g id="zbd-back" clip-path="url(#clip0_730_929)">
<rect width="400" height="600" fill="white"/>
<rect id="Rectangle Copy 5" y="3" width="400" height="597" fill="url(#paint0_linear_730_929)"/>
<path id="ZERO-BASE DESIGN" d="M34.05 301H50.34V298.36H37.5L50.13 282.31V279.34H34.38V281.98H46.56L34.05 298V301ZM56.1198 301H69.9498V298.36H59.1198V291.16H69.1998V288.64H59.1198V281.89H69.7098V279.34H56.1198V301ZM77.2597 301H80.2297V291.22H84.0097C87.6397 291.22 88.3897 292.12 88.7497 295.27C88.9597 296.92 89.2597 299.56 89.7397 301H92.9497C92.1097 298.6 91.8997 296.74 91.5997 294.19C91.2997 291.49 90.3697 290.56 88.2997 290.02C88.9597 289.84 89.9197 289.54 90.8497 288.61C91.8097 287.65 92.3797 286.3 92.3797 284.77C92.3797 283.03 91.5997 281.38 89.9797 280.36C88.3897 279.34 86.1097 279.34 84.9997 279.34H77.2597V301ZM80.1697 281.86H84.9097C86.1097 281.86 89.2297 281.86 89.2297 285.37C89.2297 287.17 88.1797 287.95 87.7597 288.19C86.9497 288.67 85.2397 288.67 84.9097 288.67H80.1697V281.86ZM98.9595 290.32C98.9595 296.26 101.359 301.51 108.739 301.51C116.449 301.51 118.759 295.72 118.759 289.96C118.759 282.61 114.979 278.77 108.979 278.77C106.969 278.77 103.999 279.25 101.749 281.68C99.3795 284.23 98.9595 287.86 98.9595 290.32ZM102.109 290.14C102.109 285.7 103.519 281.29 109.009 281.29C113.959 281.29 115.579 285.01 115.579 289.93C115.579 291.4 115.399 294.82 113.629 296.98C112.369 298.48 110.599 298.96 108.829 298.96C107.119 298.96 105.259 298.51 104.029 296.98C102.529 295.12 102.109 292.51 102.109 290.14ZM124.299 294.25H131.829V291.97H124.299V294.25ZM138.379 301H146.269C147.979 301 149.659 301 151.159 300.01C151.879 299.53 153.769 298.03 153.769 295.09C153.769 290.95 150.709 290.05 149.449 289.69C150.499 289.3 153.109 288.37 153.109 284.8C153.109 283.09 152.509 281.83 151.579 280.93C150.229 279.61 148.759 279.34 146.119 279.34H138.379V301ZM141.289 281.8H145.609C147.259 281.8 149.989 281.8 149.989 285.07C149.989 288.49 146.509 288.49 145.489 288.49H141.289V281.8ZM141.289 291.07H146.539C149.179 291.07 150.679 292.66 150.679 294.82C150.679 297.31 148.789 298.57 146.419 298.57H141.289V291.07ZM158.309 301H161.399L163.739 295.36H173.789L176.129 301H179.399L170.639 279.34H167.429L158.309 301ZM168.899 282.31L172.889 292.93H164.699L168.899 282.31ZM183.284 294.67C183.284 295.72 183.314 297.46 184.544 299.05C186.254 301.24 189.614 301.51 191.264 301.51C196.814 301.51 199.814 298.6 199.814 294.76C199.814 293.86 199.664 291.76 197.654 290.44C196.394 289.6 195.824 289.48 190.664 288.16C188.024 287.53 186.764 286.87 186.764 284.95C186.764 282.79 188.564 281.44 191.564 281.44C193.694 281.44 195.974 282.04 196.124 284.74H199.244C199.184 283.84 199.124 282.37 197.924 281.05C196.184 279.16 193.274 278.92 191.834 278.92C187.754 278.92 183.584 280.84 183.584 285.25C183.584 286.69 184.064 288.31 185.834 289.51C186.944 290.26 188.414 290.62 191.714 291.43C194.744 292.18 196.694 292.66 196.694 295.09C196.694 296.17 196.124 298.96 191.624 298.96C186.644 298.96 186.464 296.17 186.404 294.67H183.284ZM206.393 301H220.223V298.36H209.393V291.16H219.473V288.64H209.393V281.89H219.983V279.34H206.393V301ZM35.64 339H41.73C44.91 339 47.58 339 49.71 337.23C51.36 335.91 53.31 333.03 53.31 328.35C53.31 325.38 52.56 322.41 50.64 320.16C48.24 317.34 44.82 317.34 41.91 317.34H35.64V339ZM38.64 319.83H42.24C44.88 319.83 46.62 320.19 48 321.72C50.04 323.97 50.1 327.66 50.1 328.47C50.1 329.73 50.01 333.27 47.25 335.34C45.81 336.42 43.65 336.54 41.58 336.54H38.64V319.83ZM59.4304 339H73.2604V336.36H62.4304V329.16H72.5104V326.64H62.4304V319.89H73.0204V317.34H59.4304V339ZM79.6702 332.67C79.6702 333.72 79.7002 335.46 80.9302 337.05C82.6402 339.24 86.0002 339.51 87.6502 339.51C93.2002 339.51 96.2002 336.6 96.2002 332.76C96.2002 331.86 96.0502 329.76 94.0402 328.44C92.7802 327.6 92.2102 327.48 87.0502 326.16C84.4102 325.53 83.1502 324.87 83.1502 322.95C83.1502 320.79 84.9502 319.44 87.9502 319.44C90.0802 319.44 92.3602 320.04 92.5102 322.74H95.6302C95.5702 321.84 95.5102 320.37 94.3102 319.05C92.5702 317.16 89.6602 316.92 88.2202 316.92C84.1402 316.92 79.9702 318.84 79.9702 323.25C79.9702 324.69 80.4502 326.31 82.2202 327.51C83.3302 328.26 84.8002 328.62 88.1002 329.43C91.1302 330.18 93.0802 330.66 93.0802 333.09C93.0802 334.17 92.5102 336.96 88.0102 336.96C83.0302 336.96 82.8502 334.17 82.7902 332.67H79.6702ZM103.14 339H106.14V317.34H103.14V339ZM131.93 322.74C131.87 321.9 131.78 320.64 130.49 319.29C128.42 317.19 125.81 316.98 124.1 316.98C123.02 316.98 120.2 317.07 118.07 318.51C113.96 321.27 113.42 326.37 113.42 328.53C113.42 331.59 114.32 334.62 116.45 336.78C117.98 338.34 120.32 339.48 124.31 339.48C128 339.48 130.76 338.58 132.02 338.16V327.48H124.07V329.97H129.02V336.39C128.33 336.6 126.77 337.08 124.31 337.08C122.15 337.08 119.96 336.57 118.55 334.95C116.96 333.06 116.57 329.97 116.57 328.14C116.57 326.1 116.99 323.28 118.88 321.18C120.02 319.89 121.73 319.35 123.77 319.35C126.71 319.35 128.33 320.73 128.66 322.74H131.93ZM140.049 339H142.779V320.61L153.789 339H157.629V317.34H154.869V335.25L144.219 317.34H140.049V339Z" fill="white"/>
<g id="Group">
<ellipse id="Oval" cx="357" cy="566.5" rx="253" ry="252.5" stroke="white" stroke-width="3"/>
<circle id="Oval_2" cx="357.5" cy="566.5" r="179.5" stroke="white" stroke-width="3"/>
<circle id="Oval_3" cx="357.5" cy="566.5" r="203.5" stroke="white" stroke-width="3"/>
<path id="Line 2" d="M357.5 820.057V210.5" stroke="white" stroke-width="3" stroke-linecap="square"/>
</g>
</g>
<defs>
<linearGradient id="paint0_linear_730_929" x1="327.9" y1="781.268" x2="711.041" y2="420.242" gradientUnits="userSpaceOnUse">
<stop stop-color="#00376A"/>
<stop offset="0.729653"/>
<stop offset="1"/>
</linearGradient>
<clipPath id="clip0_730_929">
<rect width="400" height="600" fill="white"/>
</clipPath>
</defs>
</svg>
